<svg width="240" height="60" viewBox="0 0 240 60" fill="none" xmlns="http://www.w3.org/2000/svg">
<path fill-rule="evenodd" clip-rule="evenodd" d="M63.9138 22.507C68.3014 22.507 70.3657 25.1758 70.3714 25.1831C70.3714 25.1831 70.3714 24.5141 70.3714 24.1127C70.3714 23.6444 70.7708 23.1755 71.3032 23.1754H76.6955V48.3316H71.3032C70.7708 48.3316 70.3714 47.9295 70.3714 47.3944V46.2574C70.3714 46.2574 68.374 49 63.9138 49C56.5913 48.9999 51.0002 43.3808 51 35.7542C51 28.0604 56.6578 22.5072 63.9138 22.507ZM64.9792 28.5288C60.7187 28.5288 57.4563 31.2048 57.4563 35.7542C57.4564 40.3033 60.7188 42.9795 64.9792 42.9795C67.3755 42.9795 69.3727 41.7086 70.3714 40.2369V31.2715C69.4394 29.8665 67.3091 28.5288 64.9792 28.5288Z" fill="white"/>
<path fill-rule="evenodd" clip-rule="evenodd" d="M115.107 11.0666V25.1831C115.127 25.1577 117.192 22.507 121.565 22.507C128.821 22.5074 134.478 28.1274 134.412 35.7542C134.412 43.3808 128.754 48.9998 121.498 49C117.104 49 115.04 46.2574 115.04 46.2574V47.3944C115.04 47.8626 114.641 48.3314 114.108 48.3316H108.716V11.0666H115.107ZM120.499 28.4609C118.236 28.4609 116.106 29.8668 115.107 31.2049V40.169C116.106 41.6409 118.036 42.9129 120.499 42.9129C124.76 42.9128 128.021 40.2356 128.021 35.6863C128.021 31.1374 124.759 28.4611 120.499 28.4609Z" fill="white"/>
<path fill-rule="evenodd" clip-rule="evenodd" d="M169.694 11.0666V25.1831C169.694 25.1831 171.758 22.5071 176.152 22.507C183.341 22.507 189 28.1272 189 35.7542C189 43.3809 183.341 49 176.085 49C171.691 48.9999 169.627 46.2574 169.627 46.2574V47.3944C169.627 47.8627 169.228 48.3316 168.695 48.3316H163.303V11.0666H169.694ZM175.086 28.4609C172.823 28.4611 170.693 29.8669 169.694 31.2049V40.169C170.693 41.6408 172.623 42.9128 175.086 42.9129C179.347 42.9129 182.609 40.2357 182.609 35.6863C182.609 31.1372 179.347 28.4609 175.086 28.4609Z" fill="white"/>
<path d="M103.191 22.507C105.108 22.507 106.106 22.8367 106.12 22.8412V28.7964C106.12 28.7964 100.794 26.9897 97.4659 30.8028V48.3982H91.0751V23.1754H96.4673C96.9997 23.1756 97.3992 23.6444 97.3992 24.1127V25.1831C98.5975 23.7782 101.194 22.5071 103.191 22.507Z" fill="white"/>
<path d="M149.857 22.507C152.652 22.5071 154.982 23.3101 156.846 24.9155C159.109 26.7888 159.975 29.1974 159.975 33.4123V48.3982H153.584V34.1485C153.584 30.0006 152.253 28.3278 148.658 28.3278C146.728 28.3279 144.731 29.3311 143.466 30.8028V48.3316H137.075V23.1754H142.135C142.667 23.1758 143.067 23.6445 143.067 24.1127V25.1831C144.931 23.2431 147.394 22.507 149.857 22.507Z" fill="white"/>
<path d="M87.0807 48.3316H80.6899V23.1754H87.0807V48.3316Z" fill="white"/>
<path d="M83.8846 11C86.3477 11.0669 88.2127 13.0067 88.2128 15.3483C88.2128 17.7568 86.2812 19.6965 83.8846 19.6965C81.4884 19.6962 79.5578 17.7566 79.5578 15.3483C79.5578 12.94 81.4218 11.0003 83.8846 11Z" fill="white"/>
</svg>
