<svg width="240" height="60" viewBox="0 0 240 60" fill="none" xmlns="http://www.w3.org/2000/svg">
<path d="M135.914 22.3192C135.672 22.5082 131.395 24.9319 131.395 30.321C131.395 36.5545 136.837 38.7597 137 38.8143C136.975 38.9487 136.135 41.8344 134.131 44.7747C132.343 47.3621 130.476 49.9454 127.637 49.9454C124.797 49.9454 124.066 48.2862 120.787 48.2862C117.592 48.2862 116.456 50 113.859 50C111.261 50 109.448 47.6058 107.364 44.6655C104.95 41.2127 103 35.8488 103 30.7579C103 22.5923 108.279 18.2616 113.474 18.2616C116.235 18.2616 118.536 20.0846 120.269 20.0846C121.919 20.0846 124.492 18.1524 127.632 18.1524C128.823 18.1524 133.099 18.2616 135.914 22.3192ZM126.141 14.6955C127.44 13.1455 128.359 10.9949 128.359 8.84428C128.359 8.54605 128.334 8.24362 128.28 8C126.166 8.07981 123.652 9.41554 122.136 11.1839C120.946 12.5449 119.835 14.6955 119.835 16.8755C119.835 17.2031 119.889 17.5308 119.914 17.6358C120.048 17.661 120.265 17.6904 120.482 17.6904C122.378 17.6904 124.763 16.4134 126.141 14.6955Z" fill="white"/>
</svg>
