<svg width="240" height="60" viewBox="0 0 240 60" fill="none" xmlns="http://www.w3.org/2000/svg">
<path d="M210.39 28.4838L218.126 42.6199H225V17.388H219.531V33.6701L217.461 28.9472L211.248 17.388H202.615V42.6199H208.084V23.3762L210.39 28.4838Z" fill="white"/>
<path d="M167.831 17.388H161.853V42.6199H167.831V17.388Z" fill="white"/>
<path d="M154.956 35.1579C154.956 30.7409 152.575 28.6692 145.852 27.2463C142.142 26.4398 141.246 25.6334 141.246 24.4654C141.246 23.0054 142.571 22.389 145.018 22.389C147.988 22.389 150.92 23.2742 153.692 24.5025V18.7321C151.03 17.5405 148.131 16.9498 145.206 17.0033C138.563 17.0033 135.126 19.8445 135.126 24.4932C135.126 28.201 136.885 31.172 143.759 32.479C147.86 33.3225 148.723 33.976 148.723 35.3201C148.723 36.6642 147.86 37.4707 144.952 37.4707C141.46 37.408 138.038 36.4989 134.99 34.8242V40.8912C137.059 41.8876 139.794 43 144.89 43C152.075 43 154.928 39.853 154.928 35.1672" fill="white"/>
<path d="M130.072 35.1579C130.072 30.7409 127.715 28.6692 120.973 27.2463C117.263 26.4398 116.362 25.6334 116.362 24.4654C116.362 23.0054 117.692 22.389 120.134 22.389C123.104 22.389 126.032 23.2742 128.804 24.5025V18.7321C126.142 17.5405 123.242 16.9498 120.318 17.0033C113.68 17.0033 110.238 19.8445 110.238 24.4932C110.238 28.201 111.997 31.172 118.875 32.479C122.977 33.3225 123.835 33.976 123.835 35.3201C123.835 36.6642 122.977 37.4707 120.063 37.4707C116.572 37.408 113.15 36.4989 110.102 34.8242V40.8912C112.176 41.8876 114.91 43 120.002 43C127.192 43 130.039 39.853 130.039 35.1672" fill="white"/>
<path d="M69.8534 37.1648V17.388H63.8376V42.6199H76.1237L78.0567 37.1648H69.8534Z" fill="white"/>
<path d="M52.2209 42.6199V22.8386H59.3305V17.388H39.5623V22.8386H46.2051V42.6199H52.2209Z" fill="white"/>
<path d="M30.8404 17.388H22.9577L14 42.6199H20.8597L22.1326 38.3698C25.2567 39.2724 28.579 39.2724 31.7032 38.3698L32.9714 42.6199H39.8075L30.8404 17.388ZM26.899 33.8231C25.7821 33.8247 24.6707 33.6686 23.5988 33.3596L26.899 22.3473L30.1992 33.3596C29.1273 33.6683 28.016 33.8243 26.899 33.8231Z" fill="white"/>
<path d="M97.3015 17.388H89.4188L80.4611 42.6199H87.2972L88.5701 38.3698C91.6943 39.2724 95.0166 39.2724 98.1407 38.3698L99.4089 42.6199H106.245L97.3015 17.388ZM93.3601 33.8231C92.2432 33.825 91.1317 33.6689 90.0599 33.3596L93.3601 22.3473L96.6603 33.3596C95.5886 33.669 94.4771 33.8251 93.3601 33.8231Z" fill="white"/>
<path d="M189.367 17.388H181.485L172.527 42.6199H179.363L180.631 38.3698C183.755 39.2724 187.078 39.2724 190.202 38.3698L191.47 42.6199H198.311L189.367 17.388ZM185.426 33.8231C184.309 33.8243 183.198 33.6683 182.126 33.3596L185.426 22.3473L188.726 33.3596C187.654 33.6683 186.543 33.8243 185.426 33.8231Z" fill="white"/>
</svg>
