<svg width="240" height="60" viewBox="0 0 240 60" fill="none" xmlns="http://www.w3.org/2000/svg">
<path d="M128.093 17H135.801L122.184 34.4699V43.9756H115.762V34.4699L102.145 17H109.853L119.101 29.3317L128.093 17Z" fill="white"/>
<path d="M172.281 17V43.9757H178.704V33.6994H183.585L191.293 43.9757H199L191.036 33.4424C194.376 32.4147 196.945 29.3319 196.945 25.4782C196.945 20.8538 193.348 17 188.724 17H172.281ZM178.961 22.652H188.21C189.494 22.652 190.779 23.9366 190.779 25.2212C190.779 26.5057 189.751 27.7904 188.21 27.7904H178.961V22.652Z" fill="white"/>
<path d="M41 17V43.9757H59.7545C64.3789 43.9757 67.9757 40.3789 67.9757 35.7545C67.9757 33.4423 66.948 31.3869 65.4065 29.8454C66.4342 28.5609 67.2047 26.7625 67.4616 24.9642C67.4616 20.5967 63.865 17 59.4975 17H41ZM47.1657 22.652H58.4697C59.7543 22.652 60.7822 23.6796 60.7822 24.9642C60.7822 26.2487 59.7543 27.2763 58.4697 27.2763H47.1657V22.652ZM47.1657 32.9283H58.7268C60.2682 32.9283 61.2959 33.956 61.2959 35.4975C61.2959 37.0389 60.2682 38.0666 58.7268 38.0666H47.1657V32.9283Z" fill="white"/>
<path d="M85.1889 17L71.8293 43.9757H78.7661L80.8212 39.3514H95.9792L98.0343 43.9757H104.971L91.3546 17H85.1889ZM88.2717 23.9368L92.896 33.6994H83.6474L88.2717 23.9368Z" fill="white"/>
<path d="M163.803 17V22.7985H145.819V27.3365H163.289V33.135H145.819V38.1772H163.803V43.9757H139.397V17H163.803Z" fill="white"/>
</svg>
