<svg width="240" height="60" viewBox="0 0 240 60" fill="none" xmlns="http://www.w3.org/2000/svg">
<path d="M123.007 32.1529L126.491 27.5486H114.329L117.322 23.6043H129.5L133 19H108.707L92 41H116.293L119.777 36.3957H107.615L110.829 32.1529H123.007Z" fill="white"/>
<path d="M139.81 19L123 41H135.205L152 19H139.81Z" fill="white"/>
<path d="M179.21 19L170.973 30.1571L168.449 19H159.242L143 41H150.79L158.95 29.9529L161.459 41H170.758L187 19H179.21Z" fill="white"/>
<path d="M219.145 19.0314H199.741C198.165 19.0296 196.61 19.3928 195.2 20.0923C193.79 20.7919 192.563 21.8084 191.617 23.0613L181.599 36.2801C181.208 36.7888 180.998 37.4118 181 38.052C181 38.8312 181.31 39.5786 181.863 40.131C182.416 40.6834 183.166 40.9958 183.95 41H203.354C204.932 41.003 206.49 40.6404 207.903 39.9409C209.315 39.2414 210.545 38.2242 211.494 36.9701L213.907 33.8339H216.715L220.217 29.1297H205.357L200.624 35.3236C200.379 35.6502 200.06 35.9153 199.693 36.0977C199.326 36.2801 198.921 36.3748 198.511 36.3742H195.087C194.882 36.3742 194.686 36.2932 194.541 36.1491C194.396 36.0051 194.314 35.8096 194.314 35.6058C194.313 35.4408 194.369 35.2803 194.472 35.1511L202.36 24.6451C202.605 24.3175 202.923 24.0517 203.291 23.8692C203.658 23.6867 204.063 23.5926 204.474 23.5945H207.897C207.998 23.5945 208.099 23.6143 208.193 23.653C208.286 23.6916 208.372 23.7482 208.443 23.8195C208.515 23.8909 208.572 23.9756 208.611 24.0688C208.65 24.162 208.67 24.2619 208.67 24.3628C208.665 24.5269 208.61 24.6857 208.512 24.8176L207.218 26.5268H219.271L221.4 23.7042C221.733 23.2682 221.936 22.7484 221.987 22.2035C222.038 21.6586 221.935 21.1104 221.689 20.6209C221.442 20.1315 221.063 19.7202 220.594 19.4338C220.125 19.1474 219.585 18.9971 219.034 19L219.145 19.0314Z" fill="white"/>
<path d="M98.9999 21.9386C98.9999 21.1592 98.6898 20.4118 98.1379 19.8607C97.5859 19.3096 96.8373 19 96.0567 19H76.6979C75.123 18.997 73.5691 19.3604 72.1594 20.0614C70.7497 20.7624 69.523 21.7818 68.5766 23.0386L58.5824 36.2857C58.2566 36.7242 58.0589 37.2443 58.0113 37.7882C57.9636 38.3321 58.0678 38.8786 58.3124 39.3669C58.5569 39.8553 58.9323 40.2664 59.3967 40.5547C59.8611 40.843 60.3964 40.9971 60.9432 41H80.3021C81.877 41.003 83.4309 40.6396 84.8406 39.9386C86.2503 39.2376 87.477 38.2182 88.4234 36.9614L98.4175 23.7143C98.801 23.202 99.0056 22.5782 98.9999 21.9386ZM85.5431 24.8143L77.6737 35.3271C77.4294 35.6554 77.1113 35.9217 76.7449 36.1046C76.3786 36.2875 75.9743 36.3818 75.5647 36.38H72.0864C71.9445 36.3786 71.8057 36.3381 71.6854 36.263C71.5651 36.1879 71.4678 36.0811 71.4044 35.9544C71.3409 35.8277 71.3137 35.6859 71.3258 35.5448C71.3378 35.4036 71.3886 35.2685 71.4726 35.1543L79.342 24.6257C79.5888 24.3002 79.9075 24.0358 80.2733 23.8532C80.6391 23.6706 81.0421 23.5747 81.451 23.5729H84.8664C85.0709 23.5729 85.2671 23.654 85.4117 23.7984C85.5563 23.9428 85.6376 24.1387 85.6376 24.3429C85.6332 24.5073 85.5782 24.6664 85.4802 24.7986L85.5431 24.8143Z" fill="white"/>
<path d="M54.0482 30.5343C56.4414 30.0047 58.564 28.6625 60.0375 26.7472L62.3881 23.7143C62.7276 23.2774 62.9351 22.7564 62.9871 22.2103C63.0391 21.6643 62.9334 21.1149 62.6821 20.6244C62.4309 20.1339 62.044 19.7218 61.5652 19.4347C61.0865 19.1477 60.535 18.9971 59.9731 19H34.9857L18 41H43.8568C45.4679 41.003 47.0574 40.6396 48.4995 39.9386C49.9416 39.2376 51.1964 38.2182 52.1645 36.9614L54.5634 33.8186C54.8802 33.4122 55.05 32.9149 55.0464 32.4043C55.0458 32.0346 54.9567 31.6701 54.7862 31.34C54.6157 31.0099 54.3685 30.7232 54.0643 30.5029L54.0482 30.5343ZM42.6171 33.3943L41.0876 35.3743C40.8369 35.7016 40.5112 35.9673 40.1367 36.1501C39.7621 36.3329 39.349 36.4277 38.9302 36.4271H33.8908L37.1109 32.1843H41.9409C42.1502 32.1843 42.3508 32.2654 42.4988 32.4098C42.6467 32.5542 42.7298 32.7501 42.7298 32.9543C42.7299 33.1195 42.6732 33.2799 42.5688 33.41L42.6171 33.3943ZM49.2182 24.8457L47.9141 26.5272C47.6608 26.8507 47.3342 27.1127 46.96 27.2926C46.5857 27.4726 46.1739 27.5655 45.7567 27.5643H40.7173L43.7602 23.62H48.5903C48.6939 23.62 48.7965 23.6399 48.8922 23.6786C48.9879 23.7173 49.0749 23.7741 49.1481 23.8456C49.2214 23.9171 49.2795 24.0019 49.3191 24.0954C49.3588 24.1888 49.3792 24.2889 49.3792 24.39C49.3747 24.5545 49.3185 24.7136 49.2182 24.8457Z" fill="white"/>
</svg>
