<svg width="240" height="60" viewBox="0 0 240 60" fill="none" xmlns="http://www.w3.org/2000/svg">
<path d="M85.3785 13.1823V24.948C85.3785 24.948 89.5242 24.948 91.743 24.7795C93.4879 24.474 93.8091 24.3056 94.1302 22.5608L94.7726 20.0051H96.6702L96.349 25.5903L96.5175 31.3125H94.6042L94.1302 29.0781C93.6563 27.4879 93.014 27.1648 91.743 27.012C90.1529 26.8436 85.3785 26.8436 85.3785 26.8436V36.7117C85.3785 38.6093 86.342 39.42 88.5608 39.42H95.2465C97.3125 39.42 99.3766 39.2516 100.663 36.2378L102.392 32.4131H103.998C103.83 33.2082 103.035 40.2151 102.882 41.7916C102.882 41.7916 96.8386 41.6388 94.2987 41.6388H82.8385L76 41.7916V40.0624L78.2188 39.5728C79.8246 39.2516 80.2985 38.7777 80.2985 37.5067C80.2985 37.5067 80.467 33.2082 80.467 26.0466C80.467 18.9026 80.2985 14.6021 80.2985 14.6021C80.2985 13.1784 79.8246 12.8572 78.2188 12.536L76 12.066V10.3212L82.6858 10.4582H95.4149C97.9549 10.4582 102.238 10 102.238 10C102.238 10 102.085 12.6927 101.917 19.0573H100.172L99.5294 16.8228C98.9027 13.9617 97.9529 12.538 96.1943 12.538H86.1892C85.3785 12.54 85.3785 12.6927 85.3785 13.1823ZM111.142 14.4376H113.056V21.1233L119.589 20.8022L119.267 23.8317L112.903 23.3421V35.1235C112.903 38.4585 114.019 39.7432 115.932 39.7432C117.662 39.7432 118.946 38.7797 119.42 37.9846L120.368 39.1008C119.42 41.3196 116.727 42.4359 114.172 42.4359C111.005 42.4359 108.434 40.5383 108.434 36.882V23.5086H104.639V21.9184C107.823 21.5973 110.194 19.684 111.142 14.4376ZM124.835 34.9531L126.104 37.9826C126.578 39.2516 127.694 40.5383 130.234 40.5383C132.942 40.5383 134.059 39.1008 134.059 37.356C134.059 31.9392 123.396 33.5313 123.396 26.217C123.396 22.0868 126.731 20.1579 131.029 20.1579C132.942 20.1579 135.804 20.479 137.241 21.1214C136.92 22.7115 136.751 24.7776 136.751 26.3697L135.175 26.5225L134.059 23.3402C133.738 22.5608 132.453 21.9165 130.876 21.9165C128.963 21.9165 127.052 22.7115 127.052 24.7776C127.052 29.7047 138.036 28.6022 138.036 35.9166C138.036 40.0624 134.38 42.2812 129.913 42.2812C126.578 42.2812 123.227 40.9965 123.227 40.9965C123.548 39.0989 123.396 37.0348 123.227 34.9531H124.835ZM137.243 50.2222C137.717 48.4773 138.038 46.2605 138.359 44.1788L140.104 44.026L140.746 47.3611C140.899 48.1562 141.373 48.7985 142.644 48.7985C144.71 48.7985 147.418 47.5295 149.972 43.0762C148.84 40.3679 145.505 31.6318 142.476 24.946C141.681 23.1874 141.528 23.0327 140.425 22.7115L139.615 22.406V20.8002L144.403 20.9686L150.278 20.6475V22.2396L148.84 22.5608C147.724 22.7135 147.264 23.3402 147.264 23.9845C147.264 24.1529 147.264 24.3056 147.417 24.6268C147.722 25.5903 150.278 32.7363 152.191 37.5087C153.767 34.1737 156.797 26.6928 157.271 25.4219C157.439 24.7795 157.592 24.6268 157.592 24.1529C157.592 23.3421 157.118 22.8682 156.016 22.5627L154.884 22.2396V20.6494L159.351 20.8022L163.481 20.6494V22.2396L162.686 22.8662C161.095 23.5086 160.927 23.6613 160.298 24.946L153.307 41.3157C149.161 50.7098 144.863 51.5049 141.847 51.5049C139.936 51.5069 138.498 51.0173 137.243 50.2222Z" fill="white"/>
</svg>
