<svg width="240" height="60" viewBox="0 0 240 60" fill="none" xmlns="http://www.w3.org/2000/svg">
<path d="M111.15 31.3396C111.15 37.447 106.375 41.9474 100.515 41.9474C94.6559 41.9474 89.8813 37.447 89.8813 31.3396C89.8813 25.1891 94.6559 20.7317 100.515 20.7317C106.375 20.7317 111.15 25.1891 111.15 31.3396ZM106.494 31.3396C106.494 27.523 103.727 24.9117 100.515 24.9117C97.3037 24.9117 94.5364 27.523 94.5364 31.3396C94.5364 35.1178 97.3037 37.7674 100.515 37.7674C103.727 37.7674 106.494 35.113 106.494 31.3396Z" fill="white"/>
<path d="M134.091 31.3396C134.091 37.447 129.316 41.9474 123.457 41.9474C117.597 41.9474 112.822 37.447 112.822 31.3396C112.822 25.1939 117.597 20.7317 123.457 20.7317C129.316 20.7317 134.091 25.1891 134.091 31.3396ZM129.436 31.3396C129.436 27.523 126.668 24.9117 123.457 24.9117C120.245 24.9117 117.478 27.523 117.478 31.3396C117.478 35.1178 120.245 37.7674 123.457 37.7674C126.668 37.7674 129.436 35.113 129.436 31.3396Z" fill="white"/>
<path d="M156.076 21.3726V40.417C156.076 48.2509 151.459 51.4504 146.001 51.4504C140.863 51.4504 137.771 48.0117 136.605 45.1996L140.658 43.5113C141.379 45.2378 143.148 47.2752 145.996 47.2752C149.49 47.2752 151.655 45.1183 151.655 41.0578V39.5322H151.493C150.451 40.8187 148.443 41.9426 145.91 41.9426C140.61 41.9426 135.754 37.3226 135.754 31.3778C135.754 25.39 140.61 20.7317 145.91 20.7317C148.439 20.7317 150.446 21.8557 151.493 23.1039H151.655V21.3774H156.076V21.3726ZM151.985 31.3778C151.985 27.6426 149.495 24.9117 146.326 24.9117C143.114 24.9117 140.424 27.6426 140.424 31.3778C140.424 35.0748 143.114 37.7674 146.326 37.7674C149.495 37.7674 151.985 35.0748 151.985 31.3778Z" fill="white"/>
<path d="M163.365 10.21V41.297H158.824V10.21H163.365Z" fill="white"/>
<path d="M181.058 34.8309L184.671 37.2413C183.505 38.9678 180.695 41.9426 175.839 41.9426C169.817 41.9426 165.319 37.2843 165.319 31.3348C165.319 25.0265 169.855 20.727 175.318 20.727C180.819 20.727 183.51 25.1078 184.389 27.4752L184.872 28.6804L170.701 34.5535C171.786 36.6817 173.473 37.7674 175.839 37.7674C178.21 37.7674 179.854 36.6004 181.058 34.8309ZM169.936 31.0143L179.409 27.0783C178.888 25.7535 177.321 24.8304 175.476 24.8304C173.11 24.8304 169.817 26.9204 169.936 31.0143Z" fill="white"/>
<path d="M72.6945 28.58V24.0796H87.85C87.9982 24.8639 88.0746 25.7917 88.0746 26.7961C88.0746 30.1726 87.1522 34.3478 84.1794 37.3226C81.2879 40.3357 77.5934 41.9426 72.6993 41.9426C63.6279 41.9426 56 34.5487 56 25.4713C56 16.3939 63.6279 9 72.6993 9C77.7176 9 81.2926 10.9704 83.9787 13.5387L80.8051 16.7143C78.879 14.9065 76.2695 13.5004 72.6945 13.5004C66.0702 13.5004 60.8893 18.8426 60.8893 25.4713C60.8893 32.1 66.0702 37.4422 72.6945 37.4422C76.9912 37.4422 79.4382 35.7157 81.0059 34.147C82.2772 32.8748 83.1136 31.0574 83.4434 28.5752L72.6945 28.58Z" fill="white"/>
</svg>
