<svg width="240" height="60" viewBox="0 0 240 60" fill="none" xmlns="http://www.w3.org/2000/svg">
<path d="M183.68 11C173.162 11 164.621 19.4354 164.621 29.8484C164.621 40.2615 173.162 48.6969 183.68 48.6969C194.198 48.6969 202.741 40.2615 202.741 29.8484C202.741 19.4354 194.198 11 183.68 11ZM38 12.5123V18.6205H52.2368V41.1343H38V47.2425H72.6331V41.1343H58.4541V18.6205H72.6331V12.5123H38ZM81.8149 12.5123V47.1835H98.434C109.184 47.0671 116.564 39.5055 116.564 29.7905C116.564 20.1919 109.3 12.8031 98.7245 12.5123H81.8149ZM124.118 12.5123V47.2425H159.101V41.1343H130.394V32.9309H152.766V26.8227H130.394V18.6205H159.101V12.5123H124.118ZM183.68 17.5741C190.537 17.5741 196.174 23.1001 196.174 29.9064C196.174 36.7127 190.537 42.2387 183.68 42.2387C176.823 42.2387 171.187 36.7127 171.187 29.9064C171.187 23.1001 176.765 17.5741 183.68 17.5741ZM88.0321 18.5046H98.5497C105.349 18.6791 109.823 23.4491 109.823 29.9064C109.765 36.4218 105.291 41.1339 98.434 41.2502H88.0321V18.5046Z" fill="white"/>
</svg>
