<svg width="240" height="60" viewBox="0 0 240 60" fill="none" xmlns="http://www.w3.org/2000/svg">
<path d="M163.14 16C164.91 16 166.539 16.36 168.097 17.0791C169.583 17.7982 170.929 18.7328 172.062 19.9551C173.194 21.1775 174.115 22.6157 174.752 24.2695C175.389 25.9234 175.743 27.6493 175.743 29.5908C175.743 31.4604 175.389 33.2582 174.752 34.9121C174.115 36.5659 173.194 38.0042 172.062 39.2266C170.929 40.4489 169.583 41.4553 168.097 42.1025C166.539 42.8216 164.91 43.1816 163.14 43.1816C161.37 43.1816 159.741 42.8216 158.184 42.1025C156.697 41.3835 155.351 40.4489 154.219 39.2266C153.086 38.0042 152.165 36.5659 151.528 34.9121C150.891 33.2582 150.537 31.5323 150.537 29.5908C150.537 27.7212 150.891 25.9234 151.528 24.2695C152.165 22.6157 153.086 21.1775 154.219 19.9551C155.351 18.7328 156.626 17.7982 158.184 17.0791C159.741 16.3601 161.37 16.0001 163.14 16ZM21.6377 28.8848L28.8096 16.9697H33.0693L34.2051 42.21H29.8037L28.9512 24.7256L22.6318 35.0186H20.4307L14.041 24.9365L13.2598 42.21H9L10.1357 16.9697H14.3965L21.6377 28.8848ZM66.1963 42.21H61.0576L58.917 35.7939H49.8525L47.7119 42.21H42.9297L52.2793 16.9697H56.9902L66.1963 42.21ZM84.792 16.9697C86.2299 16.9697 87.5315 17.1807 88.5586 17.6729C89.5856 18.165 90.4072 18.7277 91.0234 19.501C91.6397 20.2743 92.1187 21.048 92.3926 21.9619C92.6664 22.8758 92.8037 23.7198 92.8037 24.4932C92.8036 26.0397 92.4609 27.5158 91.8447 28.7109C91.2285 29.9061 90.2014 30.8907 88.9004 31.6641L94.3096 42.21H89.3115L84.5869 32.2969H80.1357V42.21H75.8906V16.9697H84.792ZM113.84 16.9697C115.283 16.9697 116.589 17.1807 117.62 17.6729C118.651 18.165 119.476 18.7276 120.095 19.501C120.713 20.2743 121.194 21.048 121.469 21.9619C121.744 22.8758 121.881 23.7199 121.881 24.4932C121.881 26.0397 121.537 27.5159 120.919 28.7109C120.3 29.9061 119.27 30.8907 117.964 31.6641L123.394 42.21H118.376L113.634 32.2969H109.235V42.21H104.974V16.9697H113.84ZM139.873 42.21H135.026V16.9697H139.873V42.21ZM202.887 21.1299H194.572V42.21H189.873V21.1299H181.559V16.9697H202.887V21.1299ZM231 21.1299H222.643V42.21H218.031V21.1299H209.673V16.9697H231V21.1299ZM163.14 20.458C161.936 20.4581 160.874 20.6744 159.883 21.1777C158.963 21.6811 158.113 22.3283 157.476 23.1191C156.768 23.9101 156.272 24.9167 155.918 25.9951C155.564 27.0737 155.352 28.2243 155.352 29.5186C155.352 30.741 155.564 31.8921 155.918 32.9707C156.272 34.0493 156.768 35.0561 157.476 35.9189C158.184 36.7818 158.962 37.4293 159.883 37.9326C160.874 38.364 161.936 38.6513 163.14 38.6514C164.343 38.6514 165.406 38.436 166.397 37.9326C167.389 37.4293 168.167 36.7817 168.875 35.9189C169.583 35.0561 170.079 34.1212 170.433 32.9707C170.787 31.8921 170.999 30.741 170.999 29.5186C170.999 28.2962 170.787 27.1456 170.433 25.9951C170.079 24.9166 169.583 23.9101 168.875 23.1191C168.167 22.2564 167.388 21.6092 166.397 21.1777C165.406 20.6744 164.343 20.458 163.14 20.458ZM51.2803 31.8457H57.7754L54.5635 22.0459L51.2803 31.8457ZM80.2734 28.2891H84.8604C85.9559 28.2891 86.8466 27.9374 87.4629 27.2344C88.0789 26.5315 88.4208 25.6881 88.4209 24.6338C88.4209 23.5793 88.079 22.665 87.4629 21.9619C86.7783 21.259 85.9566 20.9776 84.9297 20.9775H80.2734V28.2891ZM109.235 28.2891H113.84C114.939 28.2891 115.833 27.9374 116.451 27.2344C117.07 26.5314 117.414 25.6882 117.414 24.6338C117.414 23.5792 117.07 22.665 116.451 21.9619C115.764 21.2589 114.939 20.9775 113.908 20.9775H109.235V28.2891Z" fill="white"/>
</svg>
