<svg width="240" height="60" viewBox="0 0 240 60" fill="none" xmlns="http://www.w3.org/2000/svg">
<path fill-rule="evenodd" clip-rule="evenodd" d="M118.718 42.9871L113.29 41.7093V20.1419L118.718 19.1222V42.9871ZM156.691 37.9018C152.754 37.9147 149.562 34.7783 149.536 30.8933V30.8546C149.536 27.0342 152.715 23.8978 156.678 23.8978C160.641 23.8978 163.82 27.0342 163.82 30.8546C163.833 34.7396 160.642 37.8889 156.717 37.9018H156.691ZM169 30.8546C169 37.5662 163.493 43 156.691 43C149.889 43 144.382 37.5662 144.382 30.8546C144.382 24.2334 149.902 18.7996 156.704 18.7996C163.506 18.7996 169 24.2334 169 30.8546ZM99.1626 41.7222L104.499 42.8193V28.299C104.499 21.3293 98.9925 18.877 95.1991 18.877C92.7007 18.877 90.634 19.4707 88.8289 21.2519C86.9322 19.4707 84.6954 18.7867 82.8903 18.7867C80.2218 18.7867 77.9851 19.8837 76.4285 21.7552V19.29L71 20.3097V41.7093L76.4285 42.8064V28.1313C76.4285 25.7564 78.1551 24.143 80.8105 24.143C83.3089 24.143 85.114 25.7564 85.114 28.1313V41.7222L90.4509 42.8193V28.1313C90.4509 25.7564 92.256 24.143 94.846 24.143C97.3444 24.143 99.1495 25.7564 99.1495 28.1313L99.1626 41.7222ZM140.327 18.7996L137.136 19.2255C131.197 20.5807 127.325 22.4522 127.325 28.9057V41.7222L132.754 42.7419V29.6672C132.754 26.6986 134.48 25.3305 137.149 24.8271L140.34 24.3237L140.327 18.7996ZM113.551 9.95834C112.256 11.2619 112.256 13.327 113.551 14.6306C114.872 15.973 117.057 15.9859 118.404 14.6823L118.456 14.6306C119.751 13.3399 119.751 11.249 118.456 9.95834C117.07 8.68055 114.925 8.68055 113.551 9.95834Z" fill="white"/>
</svg>
