<svg width="240" height="60" viewBox="0 0 240 60" fill="none" xmlns="http://www.w3.org/2000/svg">
<path d="M162.99 49.4339H80.5348V52.306H162.99V49.4339Z" fill="white"/>
<path d="M162.99 55.1279H80.5348V58H162.99V55.1279Z" fill="white"/>
<path d="M84.2687 3.93235V14.0449H81.0426V3.93235H77V1H88.3113V3.93235H84.2687Z" fill="white"/>
<path d="M100.987 9.074H92.5033V14.0449H89.2672V1H92.5033V5.97093H100.987V1H104.223V14.0449H100.987V9.074Z" fill="white"/>
<path d="M105.706 14.0449V1H114.907V3.93235H108.943V6.13161H113.772V8.90328H108.943V11.1025H114.907V14.0449H105.706Z" fill="white"/>
<path d="M84.2588 21.9984H83.7709V30.3436H80.5348V17.2986H84.3185L91.8561 25.453H92.334V17.2986H95.5701V30.3436H91.9158L84.2588 21.9984Z" fill="white"/>
<path d="M97.0637 30.3436V17.2986H106.254V20.241H100.29V22.4403H105.129V25.2119H100.29V27.4112H106.254V30.3436H97.0637Z" fill="white"/>
<path d="M106.553 17.2986H110.147L112.945 27.6823H113.712L116.261 17.2986H122.335L125.262 27.6823H126.029L128.449 17.2986H132.123L128.548 30.3436H122.793L119.816 19.9598H118.91L116.201 30.3436H110.446L106.553 17.2986Z" fill="white"/>
<path d="M79.8079 37.584C79.8079 34.8325 81.9885 33.3462 84.8064 33.3462C86.4394 33.3462 88.2317 33.768 89.2473 34.3605L88.63 37.1321C87.5446 36.4794 85.9316 36.1379 84.6869 36.1379C83.6813 36.1379 83.0042 36.5296 83.0042 37.2125C83.0042 39.3314 89.6356 38.1464 89.6356 42.5248C89.6356 44.8547 87.9827 46.9133 84.5475 46.9133C83.0739 46.9133 81.411 46.7225 80.0668 46.0798L80.1962 43.0973C81.5405 43.75 83.0042 44.1216 84.6371 44.1216C86.061 44.1216 86.4195 43.6195 86.4195 43.0169C86.4195 41.0587 79.8079 42.1934 79.8079 37.584Z" fill="white"/>
<path d="M100.36 46.4715C99.324 46.8631 98.4477 46.9133 96.994 46.9133C92.9812 46.9133 90.253 43.7299 90.253 40.1147C90.253 36.4191 93.0808 33.3663 97.2827 33.3663C98.3681 33.3663 99.5629 33.3964 100.569 33.7378L100.26 36.7003C99.1248 36.3288 98.3183 36.2785 97.3823 36.2785C94.9926 36.2785 93.5886 37.6945 93.5886 40.1047C93.5886 42.5349 95.1917 43.9207 97.4719 43.9207C98.9257 43.9207 99.3837 43.7701 100.369 43.4487V46.4715H100.36Z" fill="white"/>
<path d="M113.563 41.6712H105.079V46.6522H101.843V33.6073H105.079V38.5782H113.563V33.6073H116.789V46.6522H113.563V41.6712Z" fill="white"/>
<path d="M125.252 44.1718C127.791 44.1718 129.614 42.8663 129.614 39.9942C129.614 37.3832 127.791 36.0777 125.262 36.0777C122.743 36.0777 120.911 37.3531 120.911 40.0846C120.921 42.8462 122.743 44.1718 125.252 44.1718ZM125.292 33.3462C129.733 33.3462 132.939 35.6559 132.939 40.0645C132.939 44.6438 129.484 46.9133 125.282 46.9133C121.05 46.9133 117.585 44.6136 117.585 40.0846C117.585 35.8066 120.742 33.3462 125.292 33.3462Z" fill="white"/>
<path d="M141.174 44.1718C143.713 44.1718 145.535 42.8663 145.535 39.9942C145.535 37.3832 143.713 36.0777 141.184 36.0777C138.665 36.0777 136.833 37.3531 136.833 40.0846C136.843 42.8462 138.665 44.1718 141.174 44.1718ZM141.224 33.3462C145.665 33.3462 148.871 35.6559 148.871 40.0645C148.871 44.6438 145.416 46.9133 141.214 46.9133C136.982 46.9133 133.517 44.6136 133.517 40.0846C133.507 35.8066 136.663 33.3462 141.224 33.3462Z" fill="white"/>
<path d="M149.757 33.6073H152.983V43.5492H162.99V46.6422H149.757V33.6073Z" fill="white"/>
</svg>
