<svg width="240" height="60" viewBox="0 0 240 60" fill="none" xmlns="http://www.w3.org/2000/svg">
<path d="M177 53.5449H62V7H177V53.5449ZM161.188 10.8398C152.972 10.8398 144.489 13.7492 144.489 23.4072C144.489 33.9843 159.034 31.7273 159.034 37.7432C159.034 41.6061 154.31 42.1992 151.04 42.1992C147.77 42.1992 143.802 41.3385 141.812 40.0469L139.485 47.6689C143.254 48.8584 147.172 49.5088 151.122 49.6006C159.814 49.6005 169.426 46.9118 169.426 36.5557C169.426 25.1758 154.88 27.1654 154.88 21.8477C154.88 18.8457 158.103 18.252 162.071 18.252C164.904 18.2005 167.712 18.7898 170.286 19.9746L172.672 12.5039C170.147 11.3287 165.842 10.8399 161.188 10.8398ZM65.2461 48.96H74.6953L79.8965 23.0352H80.001L87.8438 48.96H100.295L108.242 11.4912H98.7939L93.5342 37.4756H93.418L85.749 11.4912H73.2402L65.2461 48.96ZM104.158 48.96H114.188L117.517 32.9141H129.327L125.999 48.96H136.1L143.884 11.4912H133.842L130.887 25.8271H119.018L121.973 11.4912H111.931L104.158 48.96Z" fill="white"/>
</svg>
