<svg width="240" height="60" viewBox="0 0 240 60" fill="none" xmlns="http://www.w3.org/2000/svg">
<path fill-rule="evenodd" clip-rule="evenodd" d="M204.834 16.0005C210.499 16.0005 221 16.4405 221 30.0012C221 43.5591 210.499 44 204.834 44C199.168 44 188.666 43.5587 188.666 30.0012C188.666 16.44 199.168 16.0005 204.834 16.0005ZM204.834 22.5968C201.024 22.5969 198.605 24.6854 198.605 30.0012C198.605 35.3147 201.024 37.4022 204.834 37.4027C208.643 37.4027 211.063 35.3152 211.063 30.0012C211.063 24.6858 208.643 22.5968 204.834 22.5968Z" fill="white"/>
<path d="M123.11 16.0005C133.643 16.0005 137.984 19.0412 138.315 24.5759H127.449C127.449 23.5128 126.886 22.8517 126.026 22.4856C125.198 22.0836 124.138 21.9373 123.11 21.9373C120.328 21.9373 119.368 22.7059 119.368 23.8063C119.368 24.538 119.665 25.0163 120.593 25.1622L131.756 26.9937C136.46 27.7632 139.376 30.1821 139.376 34.6154C139.376 40.9944 134.672 43.9995 124.17 43.9995C116.982 43.9995 109.131 42.9003 109.098 35.2039H120.361C120.393 36.0824 120.692 36.6688 121.355 37.0722C122.049 37.4392 123.077 37.6227 124.534 37.6227C127.448 37.6227 128.245 36.7425 128.245 35.4961C128.245 34.7266 127.813 33.9576 126.557 33.7388L115.888 31.9788C111.318 31.2079 109.431 28.276 109.431 24.6122C109.431 17.8313 115.427 16.0005 123.11 16.0005Z" fill="white"/>
<path d="M170.846 16C176.476 16 185.156 16.8056 186.383 27.1783H175.848C175.583 25.3074 174.455 22.5961 170.846 22.5961C167.035 22.5961 164.617 24.6848 164.617 30.0002C164.617 35.3143 166.969 37.4017 170.381 37.4017C173.33 37.4017 175.086 36.046 175.848 32.8947H186.383C185.786 36.3396 184.725 39.1254 182.406 41.0305C180.121 42.9365 176.543 43.9995 170.846 43.9995C165.182 43.9995 154.68 43.5587 154.68 30.0007C154.68 16.44 165.182 16 170.846 16Z" fill="white"/>
<path fill-rule="evenodd" clip-rule="evenodd" d="M37.2797 16.9168C43.9043 16.9168 46.3568 20.2146 46.3568 26.0424C46.3568 31.0629 43.9717 34.9459 37.3471 34.9459H27.3415V43.0832H18V16.9168H37.2797ZM27.341 28.5703H33.3705C35.7225 28.5703 36.6177 27.7633 36.6177 25.8583C36.6177 23.8798 35.723 23.072 33.3705 23.072H27.341V28.5703Z" fill="white"/>
<path d="M74.5789 23.2922H58.779V26.8105H73.4545V33.1885H58.779V36.7066H74.5789V43.0832H49.4376V16.9168H74.5789V23.2922Z" fill="white"/>
<path fill-rule="evenodd" clip-rule="evenodd" d="M97.7678 16.9168C104.394 16.9168 106.846 20.2146 106.846 26.0424C106.846 31.0629 104.461 34.9459 97.8345 34.9459H87.8305V43.0832H78.4891V16.9168H97.7678ZM87.8305 28.5703H93.8596C96.2116 28.5703 97.1068 27.7633 97.1068 25.8583C97.1068 23.8798 96.2117 23.072 93.8596 23.072H87.8305V28.5703Z" fill="white"/>
<path d="M151.763 43.0832H142.422V16.9168H151.763V43.0832Z" fill="white"/>
</svg>
