<svg width="240" height="60" viewBox="0 0 240 60" fill="none" xmlns="http://www.w3.org/2000/svg">
<g clip-path="url(#clip0_1882_645)">
<path fill-rule="evenodd" clip-rule="evenodd" d="M143.582 34.4321C143.769 32.209 143.745 31.4093 143.582 29.1575C143.49 27.8887 142.043 26.7979 140.434 26.7979C138.849 26.7979 137.381 27.8892 137.286 29.1575C137.121 31.3749 137.141 32.2356 137.286 34.4321C137.37 35.708 138.829 36.6526 140.434 36.6526C142.04 36.6526 143.479 35.6615 143.582 34.4321ZM141.783 29.7232C141.877 30.788 141.877 32.7254 141.783 33.7397C141.689 34.7564 141.46 35.2651 140.434 35.2651C139.408 35.2651 139.188 34.7589 139.085 33.7397C138.982 32.7204 138.984 30.7625 139.085 29.7232C139.186 28.6839 139.403 28.0474 140.434 28.0474C141.465 28.0474 141.69 28.6584 141.783 29.7232Z" fill="white"/>
<path fill-rule="evenodd" clip-rule="evenodd" d="M126.197 17.1441C126.197 17.8382 125.797 18.7476 124.677 18.7476C123.559 18.7476 123.559 17.4988 123.699 16.5265C123.839 15.6938 124.818 15.4164 126.076 15.4164C126.224 15.4164 126.217 15.5543 126.217 15.8324M128.035 15.8324C128.035 14.9996 128.035 14.0282 128.035 13.1954C128.035 11.3904 127.056 10.2803 125.097 10.2803C122.859 10.2803 121.88 11.3904 122.021 13.1954H123.839C123.979 12.3626 123.839 11.5298 124.958 11.5298C126.076 11.5298 126.144 12.4593 126.214 13.2228C126.284 13.9862 126.076 14.0282 126.076 14.0282C126.076 14.0282 124.539 14.1669 123.559 14.4442C122.58 14.7223 121.741 15.4164 121.741 17.2207C121.741 18.6089 122.021 20.1358 123.979 20.2745C125.097 20.2745 125.797 19.5803 126.076 19.303C126.076 19.303 126.217 19.303 126.357 19.9971H128.175C128.175 19.9971 128.035 18.1921 128.035 16.3879" fill="white"/>
<path fill-rule="evenodd" clip-rule="evenodd" d="M151.374 17.1441C151.374 17.8382 150.974 18.7476 149.855 18.7476C148.736 18.7476 148.736 17.4988 148.877 16.5265C149.017 15.6938 149.996 15.4164 151.254 15.4164C151.401 15.4164 151.394 15.5543 151.394 15.8324M153.213 15.8324C153.213 14.9996 153.213 14.0282 153.213 13.1954C153.213 11.3904 152.234 10.2803 150.275 10.2803C148.037 10.2803 147.058 11.3904 147.198 13.1954H149.017C149.156 12.3626 149.017 11.5298 150.135 11.5298C151.254 11.5298 151.321 12.4593 151.392 13.2228C151.462 13.9862 151.254 14.0282 151.254 14.0282C151.254 14.0282 149.716 14.1669 148.736 14.4442C147.757 14.7223 146.918 15.4164 146.918 17.2207C146.918 18.6089 147.198 20.1358 149.156 20.2745C150.275 20.2745 150.974 19.5803 151.254 19.303C151.254 19.303 151.394 19.303 151.534 19.9971H153.352C153.352 19.9971 153.213 18.1921 153.213 16.3879" fill="white"/>
<path fill-rule="evenodd" clip-rule="evenodd" d="M126.757 33.523C126.757 34.2172 126.357 35.1265 125.237 35.1265C124.119 35.1265 124.119 33.8777 124.259 32.9055C124.399 32.0727 125.378 31.7953 126.636 31.7953C126.784 31.7953 126.777 31.9332 126.777 32.2113M128.595 32.2113C128.595 31.3786 128.595 30.4071 128.595 29.5743C128.595 27.7693 127.616 26.6592 125.657 26.6592C123.419 26.6592 122.44 27.7693 122.581 29.5743H124.399C124.539 28.7415 124.399 27.9087 125.518 27.9087C126.636 27.9087 126.704 28.8382 126.774 29.6017C126.844 30.3651 126.636 30.4071 126.636 30.4071C126.636 30.4071 125.098 30.5458 124.119 30.8231C123.14 31.1012 122.301 31.7953 122.301 33.5996C122.301 34.9878 122.581 36.5147 124.539 36.6534C125.657 36.6534 126.357 35.9592 126.636 35.6819C126.636 35.6819 126.777 35.6819 126.916 36.376H128.735C128.735 36.376 128.595 34.571 128.595 32.7668" fill="white"/>
<path fill-rule="evenodd" clip-rule="evenodd" d="M156.13 33.523C156.13 34.2172 155.73 35.1265 154.611 35.1265C153.492 35.1265 153.492 33.8777 153.632 32.9055C153.772 32.0727 154.751 31.7953 156.01 31.7953C156.157 31.7953 156.15 31.9332 156.15 32.2113M157.968 32.2113C157.968 31.3786 157.968 30.4071 157.968 29.5743C157.968 27.7693 156.989 26.6592 155.031 26.6592C152.792 26.6592 151.814 27.7693 151.954 29.5743H153.772C153.912 28.7415 153.772 27.9087 154.891 27.9087C156.01 27.9087 156.077 28.8382 156.147 29.6017C156.218 30.3651 156.01 30.4071 156.01 30.4071C156.01 30.4071 154.472 30.5458 153.492 30.8231C152.513 31.1012 151.674 31.7953 151.674 33.5996C151.674 34.9878 151.954 36.5147 153.912 36.6534C155.031 36.6534 155.73 35.9592 156.01 35.6819C156.01 35.6819 156.15 35.6819 156.29 36.376H158.108C158.108 36.376 157.968 34.571 157.968 32.7668" fill="white"/>
<path fill-rule="evenodd" clip-rule="evenodd" d="M149.416 49.9019C149.416 50.5961 149.016 51.5054 147.896 51.5054C146.778 51.5054 146.778 50.2566 146.918 49.2843C147.058 48.4516 148.037 48.1742 149.295 48.1742C149.443 48.1742 149.436 48.3121 149.436 48.5902M151.254 48.5902C151.254 47.7574 151.254 46.786 151.254 45.9532C151.254 44.1482 150.275 43.0381 148.316 43.0381C146.078 43.0381 145.099 44.1482 145.24 45.9532H147.058C147.198 45.1204 147.058 44.2877 148.177 44.2877C149.295 44.2877 149.363 45.2171 149.433 45.9806C149.503 46.744 149.295 46.786 149.295 46.786C149.295 46.786 147.757 46.9247 146.778 47.202C145.799 47.4801 144.959 48.1742 144.959 49.9785C144.959 51.3667 145.24 52.8936 147.198 53.0323C148.316 53.0323 149.016 52.3382 149.295 52.0608C149.295 52.0608 149.436 52.0608 149.575 52.7549H151.394C151.394 52.7549 151.254 50.9499 151.254 49.1457" fill="white"/>
<path fill-rule="evenodd" clip-rule="evenodd" d="M122.98 49.9019C122.98 50.5961 122.58 51.5054 121.461 51.5054C120.342 51.5054 120.342 50.2566 120.483 49.2843C120.622 48.4516 121.601 48.1742 122.86 48.1742C123.007 48.1742 123 48.3121 123 48.5902M124.818 48.5902C124.818 47.7574 124.818 46.786 124.818 45.9532C124.818 44.1482 123.839 43.0381 121.881 43.0381C119.643 43.0381 118.664 44.1482 118.804 45.9532H120.622C120.762 45.1204 120.622 44.2877 121.741 44.2877C122.86 44.2877 122.927 45.2171 122.997 45.9806C123.068 46.744 122.86 46.786 122.86 46.786C122.86 46.786 121.322 46.9247 120.342 47.202C119.363 47.4801 118.524 48.1742 118.524 49.9785C118.524 51.3667 118.804 52.8936 120.762 53.0323C121.881 53.0323 122.58 52.3382 122.86 52.0608C122.86 52.0608 123 52.0608 123.14 52.7549H124.958C124.958 52.7549 124.818 50.9499 124.818 49.1457" fill="white"/>
<path fill-rule="evenodd" clip-rule="evenodd" d="M144.26 19.9972H146.218V10.4189H144.26V19.9972Z" fill="white"/>
<path fill-rule="evenodd" clip-rule="evenodd" d="M130.973 10.4189H129.014C129.014 10.4189 129.155 11.2525 129.155 12.7786C129.155 14.1669 129.155 19.9971 129.155 19.9971H131.113C131.113 19.9971 131.113 13.6114 131.113 12.9181C131.113 12.2232 131.392 11.5298 132.371 11.5298C133.211 11.5298 133.49 12.2232 133.49 12.9181C133.49 13.4727 133.49 19.9971 133.49 19.9971H135.588C135.588 19.9971 135.588 14.0282 135.588 13.0568C135.588 10.9744 134.609 10.2803 133.07 10.2803C131.811 10.2803 131.532 10.6971 131.113 10.9744C131.113 10.9744 131.113 10.9744 130.973 10.4189Z" fill="white"/>
<path fill-rule="evenodd" clip-rule="evenodd" d="M143.002 14.9997C143.002 15.5544 143.002 16.1098 143.002 16.3879C143.002 18.3308 143.141 19.9972 143.141 19.9972H141.183C141.183 19.4417 141.044 19.1636 141.044 19.1636C140.624 19.5804 140.205 20.1359 139.225 20.1359C136.707 20.1359 136.707 17.9149 136.567 17.0821C136.567 16.388 136.567 13.4728 136.567 12.5014C136.707 11.9459 137.127 10.2803 139.085 10.2803C140.484 10.2803 140.764 10.8358 141.044 10.9745V6.81055H143.002C143.002 7.92066 143.002 12.5014 143.002 14.9997ZM141.044 14.9997C141.044 14.3056 141.044 13.7501 141.044 12.9182C141.044 11.5299 139.784 11.5299 139.784 11.5299C138.666 11.5299 138.386 12.3627 138.386 14.9997C138.386 17.0821 138.386 18.7476 139.784 18.7476C141.183 18.7476 141.044 17.3594 141.044 16.3879C141.044 15.8325 141.044 15.2778 141.044 14.9997Z" fill="white"/>
<path fill-rule="evenodd" clip-rule="evenodd" d="M121.041 10.4188C121.041 9.16923 121.041 6.39355 117.405 6.39355C113.628 6.39355 113.628 9.16924 113.628 9.86415C113.628 10.6969 113.488 12.223 115.866 13.4726C116.706 14.0281 117.544 14.4441 117.824 14.5835C117.964 14.7222 119.223 15.139 119.223 16.8037C119.223 18.6088 117.685 18.7474 117.405 18.7474C116.565 18.7474 115.726 18.4693 115.447 17.0819C115.447 16.8037 115.447 16.5264 115.447 15.8323H113.209C113.209 15.8323 113.209 18.192 114.187 19.1634C115.167 20.1357 116.146 20.2743 117.265 20.2743C118.384 20.2743 119.642 19.997 120.342 19.3029C121.041 18.4693 121.321 17.776 121.321 16.6659C121.321 15.4163 121.041 14.1667 119.084 12.918C118.384 12.5012 117.685 12.223 116.985 11.807C116.146 11.3902 115.586 10.6969 115.586 9.72549C115.586 8.75324 116.286 8.05911 117.265 8.05911C118.384 8.05911 118.943 8.61458 118.943 9.72549C118.943 9.86415 118.943 10.4188 118.943 10.4188H121.041Z" fill="white"/>
<path fill-rule="evenodd" clip-rule="evenodd" d="M144.26 8.753H146.218V6.80957H144.26V8.753Z" fill="white"/>
<path fill-rule="evenodd" clip-rule="evenodd" d="M116.425 23.1895H113.209V36.5148H115.167V25.8265L118.104 36.5148H121.321V23.1895H119.363V33.5996L116.425 23.1895Z" fill="white"/>
<path fill-rule="evenodd" clip-rule="evenodd" d="M132.091 28.1856H133.49V26.7982H132.091C132.091 25.4099 132.091 24.2998 132.091 24.2998L130.134 25.1326C130.134 25.1326 130.134 25.8267 130.134 26.7982H129.014V28.1856H130.134C130.134 30.6847 130.134 34.0159 130.134 34.4327C130.134 35.2655 130.134 36.515 132.371 36.515C132.651 36.515 133.49 36.515 133.49 36.515V35.1268C133.49 35.1268 132.93 35.1268 132.651 35.1268C132.371 35.1268 132.091 34.9881 132.091 34.0159C132.091 33.5999 132.091 30.6847 132.091 28.1856Z" fill="white"/>
<path fill-rule="evenodd" clip-rule="evenodd" d="M134.19 36.5144H136.148V26.7979H134.19V36.5144Z" fill="white"/>
<path fill-rule="evenodd" clip-rule="evenodd" d="M134.19 25.1322H136.148V23.1895H134.19V25.1322Z" fill="white"/>
<path fill-rule="evenodd" clip-rule="evenodd" d="M146.499 26.7978H144.54C144.54 26.7978 144.68 27.6306 144.68 29.1575C144.68 30.5465 144.68 36.5147 144.68 36.5147H146.638C146.638 36.5147 146.638 29.9903 146.638 29.297C146.638 28.6029 146.918 27.9087 147.757 27.9087C148.736 27.9087 149.017 28.6029 149.017 29.297C149.017 29.8516 149.017 36.5147 149.017 36.5147H150.974C150.974 36.5147 150.974 30.4071 150.974 29.4349C150.974 27.3533 149.995 26.6592 148.457 26.6592C147.198 26.6592 146.918 27.076 146.499 27.3533C146.499 27.3533 146.499 27.3533 146.499 26.7978Z" fill="white"/>
<path fill-rule="evenodd" clip-rule="evenodd" d="M159.367 36.5148H161.325V23.1895H159.367V36.5148Z" fill="white"/>
<path fill-rule="evenodd" clip-rule="evenodd" d="M170.417 43.1768H168.598V52.8936H170.557L170.417 43.1768Z" fill="white"/>
<path fill-rule="evenodd" clip-rule="evenodd" d="M113.209 52.8937H117.964V51.2273H115.307V39.707H113.209V52.8937Z" fill="white"/>
<path fill-rule="evenodd" clip-rule="evenodd" d="M132.371 45.3978C132.596 47.7186 132.567 48.4302 132.371 50.1172C132.232 50.95 132.232 53.0323 129.714 53.0323C128.874 53.0323 128.315 52.4769 127.895 52.0601C127.895 52.0601 127.756 52.339 127.756 52.8937H125.797C125.797 52.8937 125.937 52.0601 125.937 50.534V39.707H127.895V43.8709C128.315 43.7323 128.595 43.1768 129.853 43.1768C131.811 43.1768 132.232 44.8424 132.371 45.3978ZM129.294 51.6441C130.692 51.6441 130.553 49.7004 130.553 49.2844C130.553 48.8684 130.553 48.4516 130.553 47.8962C130.553 45.2592 130.413 44.4256 129.294 44.4256C129.155 44.4256 127.895 44.4256 127.895 45.8146V49.5626C127.895 50.1172 127.895 51.6441 129.294 51.6441Z" fill="white"/>
<path fill-rule="evenodd" clip-rule="evenodd" d="M144.82 43.1767C143.141 43.0381 143.002 44.4255 142.721 44.4255C142.721 44.4255 142.721 43.5935 142.582 43.1767H140.763C140.763 43.1767 140.903 44.0103 140.903 45.3977C140.903 46.9246 140.903 52.8936 140.903 52.8936H142.862C142.862 52.8936 142.862 47.202 142.862 46.5087C142.862 45.8145 143.141 44.8423 144.68 44.7036L144.82 43.1767Z" fill="white"/>
<path fill-rule="evenodd" clip-rule="evenodd" d="M154.751 44.5653H156.15V43.1771H154.751C154.751 41.7896 154.751 40.6787 154.751 40.6787L152.933 41.5115C152.933 41.5115 152.933 42.2056 152.933 43.1771H151.674V44.5653H152.933C152.933 47.2023 152.933 50.3956 152.933 50.8116C152.933 51.6444 152.933 52.8939 155.031 52.8939C155.311 52.8939 156.29 52.8939 156.29 52.8939V51.5057C156.29 51.5057 155.59 51.5057 155.45 51.5057C155.031 51.5057 154.751 51.5057 154.751 50.5342C154.751 49.9788 154.751 47.0644 154.751 44.5653Z" fill="white"/>
<path fill-rule="evenodd" clip-rule="evenodd" d="M167.899 43.1768C166.5 43.1768 166.221 44.4255 166.08 44.4255C166.08 44.4255 165.941 43.5935 165.941 43.1768H163.983C163.983 43.1768 164.122 44.0103 164.122 45.3978C164.122 46.9247 164.122 52.8936 164.122 52.8936H166.221C166.221 52.8936 166.221 47.202 166.221 46.5087C166.221 45.8146 166.5 44.8423 167.899 44.7037V43.1768Z" fill="white"/>
<path fill-rule="evenodd" clip-rule="evenodd" d="M168.598 41.6511H170.417V39.708H168.598V41.6511Z" fill="white"/>
<path fill-rule="evenodd" clip-rule="evenodd" d="M177.69 48.5902C177.682 47.1853 177.69 46.0919 177.69 45.5372C177.411 43.7322 176.152 43.1768 174.473 43.1768C172.935 43.1768 171.675 43.7322 171.396 45.5372C171.256 46.5087 171.396 49.5625 171.536 50.6726C171.675 51.9222 172.655 53.0323 174.473 53.0323C176.431 53.0323 177.188 51.9909 177.551 50.7779C177.731 50.1748 177.69 49.9452 177.69 49.8398C177.205 49.8398 175.732 49.8398 175.732 49.8398C175.732 50.5339 175.732 49.9785 175.732 50.2558C175.732 51.0894 175.452 51.644 174.473 51.644C173.494 51.644 173.354 50.9499 173.354 49.9785C173.354 49.5625 173.354 49.0062 173.354 48.5902M173.214 47.202C173.214 46.9247 173.214 46.5087 173.214 46.0919C173.354 44.565 173.914 44.4255 174.473 44.4255C175.313 44.4255 175.732 44.8423 175.732 46.2305C175.732 46.5087 175.732 47.0641 175.732 47.202" fill="white"/>
<path fill-rule="evenodd" clip-rule="evenodd" d="M184.264 46.0919C184.264 44.981 184.405 43.1768 181.466 43.1768C178.949 43.1768 178.39 44.7036 178.39 45.5372C178.39 46.2305 178.39 46.6473 179.508 47.6188C179.928 48.1735 181.187 48.8684 181.746 49.2844C181.887 49.423 182.586 49.8398 182.586 50.6726C182.586 51.6441 181.607 51.644 181.466 51.644C180.768 51.644 180.348 51.3667 180.208 50.6726C180.208 50.3953 180.208 50.1171 180.208 49.8398H178.249C178.249 49.8398 178.11 51.0894 178.669 51.9222C179.229 52.755 180.488 53.0323 181.466 53.0323C182.306 53.0323 183.145 52.8936 183.704 52.339C184.264 51.7827 184.405 51.3667 184.405 50.3953C184.405 49.5625 184.264 49.0062 183.145 48.0348C182.726 47.7575 181.887 47.0641 181.327 46.786C180.768 46.5087 180.348 46.0919 180.348 45.3978C180.348 44.7036 180.768 44.4255 181.466 44.4255C182.166 44.4255 182.306 44.981 182.306 45.6751C182.306 45.8146 182.446 46.0919 182.446 46.0919H184.264Z" fill="white"/>
<path fill-rule="evenodd" clip-rule="evenodd" d="M139.795 50.8119C139.982 48.5889 139.958 47.7892 139.795 45.5374C139.703 44.2686 138.256 43.1777 136.647 43.1777C135.062 43.1777 133.594 44.2691 133.499 45.5374C133.334 47.7548 133.354 48.6155 133.499 50.8119C133.583 52.0878 135.041 53.0325 136.647 53.0325C138.253 53.0325 139.692 52.0414 139.795 50.8119ZM137.996 46.1031C138.09 47.1679 138.09 49.1053 137.996 50.1196C137.902 51.1363 137.673 51.645 136.647 51.645C135.621 51.645 135.401 51.1388 135.298 50.1196C135.195 49.1003 135.197 47.1424 135.298 46.1031C135.399 45.0638 135.616 44.4273 136.647 44.4273C137.678 44.4273 137.903 45.0383 137.996 46.1031Z" fill="white"/>
<path fill-rule="evenodd" clip-rule="evenodd" d="M163.154 50.8119C163.34 48.5889 163.317 47.7892 163.154 45.5374C163.062 44.2686 161.614 43.1777 160.006 43.1777C158.421 43.1777 156.952 44.2691 156.858 45.5374C156.693 47.7548 156.713 48.6155 156.858 50.8119C156.942 52.0878 158.4 53.0325 160.006 53.0325C161.611 53.0325 163.051 52.0414 163.154 50.8119ZM161.355 46.1031C161.449 47.1679 161.449 49.1053 161.355 50.1196C161.261 51.1363 161.032 51.645 160.006 51.645C158.98 51.645 158.76 51.1388 158.657 50.1196C158.553 49.1003 158.555 47.1424 158.657 46.1031C158.758 45.0638 158.975 44.4273 160.006 44.4273C161.037 44.4273 161.261 45.0383 161.355 46.1031Z" fill="white"/>
<path d="M66.1556 7.95057C66.1556 7.95057 75.4276 7.30841 80.0637 7.30841C84.6997 7.30841 93.9717 7.95057 93.9717 7.95057C98.5688 7.95057 102.296 11.6467 102.296 16.2062C102.296 16.2062 102.943 25.4017 102.943 29.9995C102.943 34.5973 102.296 43.7928 102.296 43.7928C102.296 48.3521 98.5688 52.0483 93.9717 52.0483C93.9717 52.0483 84.6997 52.6904 80.0637 52.6904C75.4276 52.6904 66.1556 52.0483 66.1556 52.0483C61.5583 52.0483 57.8313 48.3521 57.8313 43.7928C57.8313 43.7928 57.1841 34.5973 57.1841 29.9995C57.1841 25.4017 57.8313 16.2062 57.8313 16.2062C57.8313 11.6467 61.5583 7.95057 66.1556 7.95057Z" stroke="white" stroke-width="6"/>
<path d="M71.8012 17.1668H75.4L75.2889 20.7135H64.4963V41.3716L68.9811 41.6048V34.4685L71.1541 34.5816V28.1411H75.0555L74.4824 46.4199H85.645L85.0716 28.1411H88.9732V34.5816L91.1462 34.4685V41.6048L95.6308 41.3716V20.7135H84.8382L84.6073 13.3543H71.8012V17.1668Z" fill="white"/>
</g>
<defs>
<clipPath id="clip0_1882_645">
<rect width="131" height="52" fill="white" transform="translate(54 4)"/>
</clipPath>
</defs>
</svg>
