<svg width="240" height="60" viewBox="0 0 240 60" fill="none" xmlns="http://www.w3.org/2000/svg">
<g clip-path="url(#clip0_1882_654)">
<path d="M85.1747 7.76844H85.2315L90.9832 25.07H93.3885L98.5209 6H96.8186L92.3085 23.3537H92.2547L86.3101 6H84.177L78.4762 23.3537H78.4223L73.8839 6H72.02L77.1 25.07H79.5846L85.1747 7.76844Z" fill="white"/>
<path d="M101.013 11.8104V25.07H102.635V11.8104H101.013ZM102.771 6H100.877V7.98149H102.771V6Z" fill="white"/>
<path d="M118.546 18.8096C118.546 14.6649 116.899 11.4141 112.359 11.4141C108.335 11.4141 106.308 14.8482 106.308 18.4402C106.308 22.0605 108.199 25.4663 112.253 25.4663C115.52 25.4663 117.547 24.0137 118.383 20.8448H116.682C116.277 22.6668 114.684 24.0137 112.765 24.0137C109.442 24.0137 108.118 21.6359 108.065 18.8096H118.546ZM108.118 17.357C108.335 15.0344 109.74 12.8667 112.388 12.8667C115.197 12.8667 116.602 14.7945 116.792 17.357H108.118Z" fill="white"/>
<path d="M131.372 18.1229C131.372 21.1338 130.289 24.0137 126.751 24.0137C123.644 24.0137 122.916 20.6586 122.916 18.2033C122.916 15.6676 123.915 12.8667 126.993 12.8667C130.156 12.8667 131.372 15.4307 131.372 18.1229ZM131.505 25.07H133.18C133.126 24.1716 133.046 23.1138 133.046 22.0858V6H131.426V13.7651L131.372 13.8187C130.425 12.2603 128.534 11.4141 126.726 11.4141C122.697 11.4141 121.159 14.9554 121.159 18.3895C121.159 21.7149 122.697 25.4663 126.726 25.4663C128.616 25.4663 130.263 24.5947 131.372 23.0095L131.426 23.1138L131.505 25.07Z" fill="white"/>
<path d="M148.613 18.8096C148.613 14.6649 146.966 11.4141 142.426 11.4141C138.402 11.4141 136.375 14.8482 136.375 18.4402C136.375 22.0605 138.266 25.4663 142.32 25.4663C145.587 25.4663 147.614 24.0137 148.45 20.8448H146.749C146.344 22.6668 144.751 24.0137 142.832 24.0137C139.509 24.0137 138.185 21.6359 138.132 18.8096H148.613ZM138.185 17.357C138.402 15.0344 139.807 12.8667 142.455 12.8667C145.264 12.8667 146.668 14.7945 146.858 17.357H138.185Z" fill="white"/>
<path d="M153.915 17.4375C153.915 15.0597 155.131 12.8667 157.807 12.8667C160.019 12.8667 161.371 14.215 161.371 16.5123V25.07H162.993V16.776C162.993 15.2444 162.64 11.4141 158.211 11.4141C156.456 11.4141 154.915 12.1798 153.968 13.8187L153.915 13.765L153.832 11.8104H152.16C152.214 12.7087 152.294 13.765 152.294 14.7945V25.07H153.914L153.915 17.4375Z" fill="white"/>
<path d="M62.7292 52.9303L62.7562 42.9737L72.1053 52.9303H74.5077L64.7023 42.4716L73.6984 33.8604H71.4831L62.7562 42.2586L62.7292 33.8604H61V52.9303H62.7292Z" fill="white"/>
<path d="M88.3295 46.67C88.3295 42.5253 86.6826 39.2744 82.1426 39.2744C78.1187 39.2744 76.0918 42.7085 76.0918 46.3005C76.0918 49.9208 77.9826 53.3266 82.0364 53.3266C85.3034 53.3266 87.3303 51.874 88.1665 48.7051H86.4657C86.0603 50.5272 84.4672 51.874 82.548 51.874C79.2256 51.874 77.9018 49.4962 77.8479 46.67H88.3295ZM77.9018 45.2174C78.1187 42.8947 79.5233 40.727 82.171 40.727C84.9803 40.727 86.3849 42.6549 86.5749 45.2174H77.9018Z" fill="white"/>
<path d="M93.6309 45.2978C93.6309 42.9201 94.8471 40.727 97.5232 40.727C99.7356 40.727 101.088 42.0753 101.088 44.3727V52.9303H102.709V44.6364C102.709 43.1048 102.356 39.2744 97.9271 39.2744C96.1724 39.2744 94.6317 40.0402 93.6848 41.679L93.6309 41.6254L93.5486 39.6707H91.8762C91.9301 40.5691 92.0108 41.6254 92.0108 42.6549V52.9303H93.6309L93.6309 45.2978Z" fill="white"/>
<path d="M108.59 45.2978C108.59 42.9201 109.806 40.727 112.482 40.727C114.694 40.727 116.047 42.0753 116.047 44.3727V52.9303H117.668V44.6364C117.668 43.1048 117.315 39.2744 112.886 39.2744C111.131 39.2744 109.59 40.0402 108.644 41.679L108.59 41.6254L108.507 39.6707H106.835C106.889 40.5691 106.97 41.6254 106.97 42.6549V52.9303H108.59L108.59 45.2978Z" fill="white"/>
<path d="M133.505 46.67C133.505 42.5253 131.858 39.2744 127.318 39.2744C123.294 39.2744 121.267 42.7085 121.267 46.3005C121.267 49.9208 123.158 53.3266 127.212 53.3266C130.479 53.3266 132.506 51.874 133.342 48.7051H131.641C131.236 50.5272 129.642 51.874 127.723 51.874C124.401 51.874 123.077 49.4962 123.023 46.67H133.505ZM123.077 45.2174C123.294 42.8947 124.699 40.727 127.346 40.727C130.156 40.727 131.56 42.6549 131.75 45.2174H123.077Z" fill="white"/>
<path d="M146.48 45.9832C146.48 48.9942 145.397 51.874 141.859 51.874C138.752 51.874 138.024 48.5189 138.024 46.0637C138.024 43.5279 139.023 40.727 142.102 40.727C145.264 40.727 146.48 43.2911 146.48 45.9832ZM146.613 52.9303H148.289C148.235 52.032 148.154 50.9742 148.154 49.9462V33.8604H146.534V41.6254L146.48 41.679C145.533 40.1207 143.642 39.2744 141.834 39.2744C137.805 39.2744 136.268 42.8158 136.268 46.2499C136.268 49.5752 137.805 53.3266 141.834 53.3266C143.725 53.3266 145.372 52.4551 146.48 50.8699L146.534 50.9742L146.613 52.9303Z" fill="white"/>
<path d="M150.348 39.6709L155.97 52.9305L153.915 58.0004H155.698L163.181 39.6709H161.424L156.888 50.7658L152.321 39.6709H150.348Z" fill="white"/>
<path d="M170.505 25.0732V39.696Z" fill="white"/>
<path d="M170.505 25.0732V39.696" stroke="white" stroke-width="1.30045"/>
<path d="M163.012 32.3828H177.993Z" fill="white"/>
<path d="M163.012 32.3828H177.993" stroke="white" stroke-width="1.30045"/>
</g>
<defs>
<clipPath id="clip0_1882_654">
<rect width="117" height="52" fill="white" transform="translate(61 6)"/>
</clipPath>
</defs>
</svg>
